<svg width="36" height="32" viewBox="0 0 36 32" fill="none" xmlns="http://www.w3.org/2000/svg">
<path d="M18 0C20.0399 0 22.7184 1.01287 23.6629 1.89987L23.2916 2.74351C23.2916 2.74351 26.1676 2.78188 27.65 3.73604C29.1324 4.69019 29.8083 5.33909 30.5383 6.88021C31.2693 6.91502 34.0103 8.07845 35.5976 9.24806C35.5976 9.24806 36.9318 14.2989 34.4048 16.4785L36 18.6685C35.5976 20.0474 33.8603 21.4484 32.1337 21.6155C31.3568 22.5571 32.8637 24.4274 32.8637 24.4274C32.2258 26.4521 27.9315 28.1851 25.3667 28.1851L25.7197 29.6234C25.7197 29.6234 23.3489 31.4641 18 31.5161C12.6511 31.4641 10.2803 29.6234 10.2803 29.6234L10.6333 28.1851C8.06855 28.1851 3.7742 26.4521 3.13628 24.4274C3.13628 24.4274 4.64315 22.5571 3.86628 21.6155C2.1397 21.4484 0.402405 20.0474 0 18.6685L1.59516 16.4785C-0.931825 14.2989 0.402405 9.24806 0.402405 9.24806C1.98974 8.07845 4.73068 6.91502 5.46169 6.88021C6.19169 5.33909 6.86763 4.69019 8.35 3.73604C9.83238 2.78188 12.7084 2.74351 12.7084 2.74351L12.3371 1.89987C13.2816 1.01287 15.9601 0 18 0Z" fill="white"/>
<path d="M17.9922 21.8023C17.9948 21.8 18.0001 21.8134 18.0001 21.8134C18.0001 21.8134 18.0052 21.8 18.0078 21.8023C18.3994 21.4223 19.0092 21.2403 19.6467 21.2424C19.7002 21.2423 19.754 21.2435 19.8078 21.2459C19.8724 21.2489 20.0505 21.2515 20.2157 21.2539C20.3431 21.2558 20.4934 21.2582 20.5476 21.2599C21.2673 21.2547 21.9792 20.6469 21.9792 19.5215C21.9792 17.607 22.1035 14.3933 22.1673 12.7441C22.1673 12.7441 22.2133 12.2741 22.259 12.0276C22.2754 11.9393 22.2932 11.8531 22.3116 11.7751H13.6884C13.7068 11.8531 13.7246 11.9393 13.741 12.0276C13.7867 12.2741 13.8327 12.7441 13.8327 12.7441C13.8965 14.3933 14.0208 17.607 14.0208 19.5215C14.0208 20.6469 14.7327 21.2547 15.4524 21.2599C15.5066 21.2582 15.6569 21.2558 15.7843 21.2539C15.9495 21.2515 16.1276 21.2489 16.1922 21.2459C16.246 21.2435 16.2998 21.2423 16.3533 21.2424C16.9908 21.2403 17.6006 21.4223 17.9922 21.8023Z" fill="#FFDD2D"/>
<path d="M13.0017 4.54196C10.9607 4.02215 9.42203 4.73356 8.09078 5.71242C6.7568 6.69328 6.23039 7.96475 6.34744 8.41995C5.25658 7.97332 2.86152 9.35834 1.72145 10.0228C1.72145 10.0228 0.839209 14.3383 3.09455 16.0081C2.97731 17.1805 2.15037 18.5876 1.72145 18.8511C2.46491 20.0235 4.04027 20.3445 4.70747 20.0466C5.82266 21.5907 5.28381 23.6829 4.66426 24.3501C6.39751 25.9151 10.533 26.5713 11.7443 26.6694C11.7443 26.6694 10.678 24.1704 10.2019 22.1111C8.88618 16.42 9.59437 9.31868 9.59437 9.31868C9.59437 9.31868 6.52093 12.8965 8.23412 21.5219C8.5234 22.9783 8.93221 24.5177 8.93221 24.5177C8.64713 24.3764 7.95152 24.4621 6.67244 23.8151C7.22037 23.225 6.98473 19.7251 5.37045 18.0078C5.37045 18.0078 4.60237 18.3622 4.03854 18.1275C4.41788 17.8945 4.89156 16.4072 4.89156 15.2691C3.0662 14.1781 3.25985 12.2058 3.35013 11.1686C4.24584 10.5871 5.85223 9.59845 7.87344 10.4616C7.82033 9.97202 7.9586 8.66904 8.51318 7.75655C8.51318 7.75655 9.18828 6.58197 10.7131 6.21348C12.2379 5.84499 13.0017 4.54196 13.0017 4.54196Z" fill="#333333"/>
<path d="M22.9983 4.54196C25.0393 4.02215 26.578 4.73356 27.9092 5.71242C29.2432 6.69328 29.7696 7.96475 29.6526 8.41995C30.7434 7.97332 33.1385 9.35834 34.2786 10.0228C34.2786 10.0228 35.1608 14.3383 32.9055 16.0081C33.0227 17.1805 33.8497 18.5876 34.2786 18.8511C33.5351 20.0235 31.9598 20.3445 31.2926 20.0466C30.1774 21.5907 30.7162 23.6829 31.3358 24.3501C29.6025 25.9151 25.4671 26.5713 24.2558 26.6694C24.2558 26.6694 25.322 24.1704 25.7981 22.1111C27.1138 16.42 26.4057 9.31868 26.4057 9.31868C26.4057 9.31868 29.4791 12.8965 27.7659 21.5219C27.4766 22.9783 27.0678 24.5177 27.0678 24.5177C27.3529 24.3764 28.0485 24.4621 29.3276 23.8151C28.7797 23.225 29.0153 19.7251 30.6296 18.0078C30.6296 18.0078 31.3977 18.3622 31.9615 18.1275C31.5822 17.8945 31.1085 16.4072 31.1085 15.2691C32.9338 14.1781 32.7402 12.2058 32.6499 11.1686C31.7542 10.5871 30.1478 9.59845 28.1266 10.4616C28.1797 9.97203 28.0414 8.66904 27.4869 7.75655C27.4869 7.75655 26.8118 6.58197 25.2869 6.21348C23.7621 5.84499 22.9983 4.54196 22.9983 4.54196Z" fill="#333333"/>
<path fill-rule="evenodd" clip-rule="evenodd" d="M11.1243 10.0808H24.8757C24.7691 10.2293 24.3358 10.9507 24.1808 11.367C24.0253 11.7845 23.9109 12.2058 23.9057 12.4653C23.9015 12.6709 23.8765 13.3087 23.8438 14.1425L23.8438 14.143L23.8435 14.1512C23.7786 15.8052 23.6832 18.2368 23.6564 19.6732C23.6445 20.3068 23.5038 21.1469 22.9955 21.8338C22.4779 22.5331 21.6038 23.0408 20.1985 23.0408H19.2102C19.1126 23.0408 19.0454 23.066 18.9922 23.1025C18.9354 23.1415 18.883 23.2017 18.8303 23.2876C18.7771 23.3745 18.7218 23.496 18.6703 23.6113C18.6234 23.7165 18.571 23.834 18.5091 23.9406C18.488 23.9689 18.403 24.0824 18.3236 24.1332C18.2389 24.1873 18.1327 24.2192 18.0016 24.2192L18 24.2192L17.9984 24.2192C17.8673 24.2192 17.7611 24.1873 17.6764 24.1332C17.597 24.0824 17.512 23.9689 17.491 23.9406C17.429 23.834 17.3766 23.7165 17.3297 23.6113C17.2782 23.496 17.2229 23.3745 17.1697 23.2876C17.117 23.2017 17.0646 23.1415 17.0078 23.1025C16.9546 23.066 16.8874 23.0408 16.7898 23.0408H15.8015C14.3962 23.0408 13.5221 22.5331 13.0045 21.8338C12.4962 21.1469 12.3555 20.3068 12.3436 19.6732C12.3168 18.2368 12.2214 15.8052 12.1565 14.1512L12.1562 14.143C12.1235 13.309 12.0985 12.6709 12.0943 12.4653C12.0891 12.2058 11.9747 11.7845 11.8192 11.367C11.6642 10.9507 11.2309 10.2293 11.1243 10.0808ZM18 21.8099C18.4199 21.3965 19.0961 21.2143 19.7883 21.2459C19.853 21.2489 20.031 21.2515 20.1962 21.2539C20.3236 21.2558 20.4434 21.2575 20.4976 21.2592C21.2339 21.2826 21.9792 20.673 21.9792 19.5215C21.9792 17.607 22.1035 14.3933 22.1673 12.7441C22.1673 12.7441 22.2133 12.2741 22.259 12.0275C22.2754 11.9392 22.2932 11.8531 22.3116 11.7751H13.6884C13.7068 11.8531 13.7246 11.9392 13.741 12.0275C13.7867 12.2741 13.8327 12.7441 13.8327 12.7441C13.8965 14.3933 14.0208 17.607 14.0208 19.5215C14.0208 20.673 14.7661 21.2826 15.5024 21.2592C15.5566 21.2575 15.6764 21.2558 15.8038 21.2539C15.969 21.2515 16.147 21.2489 16.2117 21.2459C16.9039 21.2143 17.5801 21.3965 18 21.8099Z" fill="#333333"/>
<path fill-rule="evenodd" clip-rule="evenodd" d="M11.1243 10.0808H24.8757C24.7691 10.2293 24.3358 10.9507 24.1808 11.367C24.0253 11.7845 23.9109 12.2058 23.9057 12.4653C23.9015 12.6709 23.8765 13.3087 23.8438 14.1425L23.8438 14.143L23.8435 14.1512C23.7786 15.8052 23.6832 18.2368 23.6564 19.6732C23.6445 20.3068 23.5038 21.1469 22.9955 21.8338C22.4779 22.5331 21.6038 23.0408 20.1985 23.0408H19.2102C19.1126 23.0408 19.0454 23.066 18.9922 23.1025C18.9354 23.1415 18.883 23.2017 18.8303 23.2876C18.7771 23.3745 18.7218 23.496 18.6703 23.6113C18.6234 23.7165 18.571 23.834 18.5091 23.9406C18.488 23.9689 18.403 24.0824 18.3236 24.1332C18.2389 24.1873 18.1311 24.2192 18 24.2192C17.8689 24.2192 17.7611 24.1873 17.6764 24.1332C17.597 24.0824 17.512 23.9689 17.491 23.9406C17.429 23.834 17.3766 23.7165 17.3297 23.6113C17.2782 23.496 17.2229 23.3745 17.1697 23.2876C17.117 23.2017 17.0646 23.1415 17.0078 23.1025C16.9546 23.066 16.8874 23.0408 16.7898 23.0408H15.8015C14.3962 23.0408 13.5221 22.5331 13.0045 21.8338C12.4962 21.1469 12.3555 20.3068 12.3436 19.6732C12.3168 18.2368 12.2214 15.8052 12.1565 14.1512L12.1562 14.143C12.1235 13.309 12.0985 12.6709 12.0943 12.4653C12.0891 12.2058 11.9747 11.7845 11.8192 11.367C11.6642 10.9507 11.2309 10.2293 11.1243 10.0808ZM18 21.8099C18.4199 21.3965 19.0961 21.2143 19.7883 21.2459C19.853 21.2489 20.031 21.2515 20.1962 21.2539C20.3236 21.2558 20.4434 21.2575 20.4976 21.2592C21.2339 21.2826 21.9792 20.673 21.9792 19.5215C21.9792 17.607 22.1035 14.3933 22.1673 12.7441C22.1673 12.7441 22.2133 12.2741 22.259 12.0275C22.2754 11.9392 22.2932 11.8531 22.3116 11.7751H13.6884C13.7068 11.8531 13.7246 11.9392 13.741 12.0275C13.7867 12.2741 13.8327 12.7441 13.8327 12.7441C13.8965 14.3933 14.0208 17.607 14.0208 19.5215C14.0208 20.673 14.7661 21.2826 15.5024 21.2592C15.5566 21.2575 15.6764 21.2558 15.8038 21.2539C15.969 21.2515 16.147 21.2489 16.2117 21.2459C16.9039 21.2143 17.5801 21.3965 18 21.8099Z" fill="#333333"/>
<path fill-rule="evenodd" clip-rule="evenodd" d="M14.1713 2.44834L18 1.29114L21.8287 2.44834L21.2457 8.25256C21.2457 8.25256 19.4457 7.88978 18 7.86771C16.5544 7.88978 14.7543 8.25256 14.7543 8.25256L14.1713 2.44834ZM18 6.21005C18.7845 6.20957 19.699 6.33773 19.699 6.33773L19.9388 3.58773L18 3.06197L16.0612 3.58773L16.301 6.33773C16.301 6.33773 17.2155 6.20957 18 6.21005Z" fill="#333333"/>
<path fill-rule="evenodd" clip-rule="evenodd" d="M13.8215 24.7013C13.8215 24.7013 16.1351 25.3668 18.0001 25.368C19.8652 25.3668 22.1796 24.7013 22.1796 24.7013L23.5524 28.8721C23.5524 28.8721 21.3959 29.8835 18 29.9232C14.6041 29.8835 12.4486 28.8721 12.4486 28.8721L13.8215 24.7013ZM14.3183 27.8891C14.9666 28.152 16.0676 28.5239 18.0011 28.5316C19.9346 28.5239 21.0345 28.152 21.6828 27.8891L21.1851 26.3777C20.2847 26.6409 19.2327 26.8701 18 26.8803C16.7673 26.8701 15.7163 26.6409 14.816 26.3777L14.3183 27.8891Z" fill="#333333"/>
<path d="M16.827 18.8714H19.1731C18.9553 18.6117 18.8085 18.1391 18.8085 17.5992L18.8082 17.5997V15.7952H19.3941L19.3962 15.7952H19.3473C19.8433 15.7952 20.2771 15.9776 20.5156 16.247L20.5156 14.5022H15.4844L15.4844 16.247C15.723 15.9776 16.1567 15.7952 16.6527 15.7952H16.6038L16.6059 15.7952H17.1918V17.5997L17.1915 17.5992C17.1915 18.1391 17.0447 18.6117 16.827 18.8714Z" fill="#333333"/>
<path fill-rule="evenodd" clip-rule="evenodd" d="M18 18.8714H19.1731C18.9553 18.6117 18.8085 18.1391 18.8085 17.5992L18.8082 17.5997V15.7952H19.3941L19.3962 15.7952H19.3473C19.8433 15.7952 20.2771 15.9776 20.5156 16.247L20.5156 14.5022L18 14.5022V18.8714Z" fill="#333333"/>
</svg>
